{"glyphs":{"0":{"ha":1065,"x_min":0,"x_max":0,"o":"m 843 1 l 1065 251 l 1065 756 l 843 1006 l 292 1006 l 69 756 l 69 251 l 292 1 z m 722 169 l 413 169 l 274 326 l 274 681 l 413 838 l 722 838 l 861 681 l 861 326 z "},"1":{"ha":543,"x_min":0,"x_max":0,"o":"m 543 1 l 543 1011 l 193 1011 l 69 907 l 69 775 l 238 775 l 238 843 l 313 843 l 313 1 z "},"2":{"ha":1039,"x_min":0,"x_max":0,"o":"m 71 1010 b 71 758 71 926 71 843 b 556 758 232 758 394 758 l 838 492 b 71 492 582 492 326 492 b 71 104 71 363 71 233 l 194 0 b 1039 0 476 0 757 0 l 1039 183 b 239 183 772 183 506 183 b 239 317 239 228 239 272 b 1039 317 506 317 772 317 b 1039 579 1039 404 1039 492 l 583 1010 l 71 1010 z "},"3":{"ha":1039,"x_min":0,"x_max":0,"o":"m 818 1 l 1039 251 l 1039 756 l 818 1006 l 193 1006 l 69 903 l 69 771 l 239 771 l 239 838 l 697 838 l 835 681 l 835 590 l 415 590 l 415 417 l 835 417 l 835 326 l 697 169 l 239 169 l 239 236 l 69 236 l 69 104 l 193 1 z "},"4":{"ha":1038,"x_min":0,"x_max":0,"o":"m 1038 1 l 1038 1011 l 913 1011 l 807 856 l 807 504 l 272 504 l 272 681 l 411 838 l 411 1006 l 290 1006 l 69 756 l 69 329 l 807 329 l 807 114 l 913 1 z "},"5":{"ha":1038,"x_min":0,"x_max":0,"o":"m 817 1 l 1038 251 l 1038 504 l 274 504 l 274 681 l 411 838 l 869 838 l 869 771 l 1038 771 l 1038 903 l 914 1006 l 290 1006 l 69 756 l 69 329 l 835 329 l 835 326 l 696 169 l 238 169 l 238 236 l 69 236 l 69 104 l 193 1 z "},"6":{"ha":1039,"x_min":0,"x_max":0,"o":"m 915 1 l 1039 104 l 1039 590 l 274 590 l 274 681 l 413 838 l 871 838 l 871 771 l 1039 771 l 1039 903 l 915 1006 l 292 1006 l 69 756 l 69 251 l 292 1 z m 864 169 l 413 169 l 274 326 l 274 417 l 864 417 z "},"7":{"ha":1026,"x_min":0,"x_max":0,"o":"m 1026 1 l 1026 1006 l 346 1006 l 69 776 l 69 636 l 238 636 l 238 703 l 401 831 l 796 831 l 796 114 l 901 1 z "},"8":{"ha":1029,"x_min":0,"x_max":0,"o":"m 807 1 l 1029 251 l 1029 903 l 906 1006 l 193 1006 l 69 903 l 69 251 l 290 1 z m 686 169 l 413 169 l 274 326 l 274 504 l 825 504 l 825 326 z m 860 678 l 239 678 l 239 838 l 860 838 z "},"9":{"ha":1038,"x_min":0,"x_max":0,"o":"m 817 1 l 1038 251 l 1038 756 l 817 1006 l 193 1006 l 69 903 l 69 417 l 833 417 l 833 326 l 696 169 l 238 169 l 238 236 l 69 236 l 69 104 l 193 1 z m 833 590 l 243 590 l 243 838 l 696 838 l 833 681 z "},"\u0000":{"ha":694,"x_min":0,"x_max":0,"o":""},"\u001d":{"ha":694,"x_min":0,"x_max":0,"o":""}," ":{"ha":706,"x_min":0,"x_max":0,"o":""}," ":{"ha":706,"x_min":0,"x_max":0,"o":""},"!":{"ha":300,"x_min":0,"x_max":0,"o":"m 300 299 l 300 1006 l 69 1006 l 69 299 z m 300 1 l 300 228 l 69 228 l 69 114 l 175 1 z "},"\"":{"ha":593,"x_min":0,"x_max":0,"o":"m 300 779 l 300 1006 l 69 1006 l 69 892 l 175 779 z m 593 779 l 593 1006 l 363 1006 l 363 892 l 468 779 z "},"#":{"ha":1067,"x_min":0,"x_max":0,"o":"m 796 1 l 824 167 l 953 167 l 1067 272 l 1067 397 l 861 397 l 883 531 l 953 531 l 1067 636 l 1067 761 l 921 761 l 942 885 l 854 999 l 729 999 l 690 761 l 531 761 l 551 885 l 464 999 l 339 999 l 300 761 l 182 761 l 69 656 l 69 531 l 263 531 l 240 397 l 182 397 l 69 290 l 69 167 l 203 167 l 193 114 l 281 1 l 406 1 l 433 167 l 593 167 l 585 114 l 671 1 z m 631 397 l 471 397 l 493 531 l 653 531 z "},"$":{"ha":1038,"x_min":0,"x_max":0,"o":"m 688 -165 l 688 0 l 814 0 l 1035 251 l 1035 503 l 269 503 l 269 506 l 408 663 l 867 663 l 867 596 l 1035 596 l 1035 728 l 911 831 l 688 831 l 688 885 l 581 997 l 457 997 l 457 831 l 288 831 l 67 581 l 67 328 l 831 328 l 831 325 l 693 169 l 235 169 l 235 236 l 67 236 l 67 104 l 190 0 l 457 0 l 457 -53 l 563 -165 z "},"%":{"ha":839,"x_min":0,"x_max":0,"o":"m 692 46 b 839 193 772 46 839 113 b 692 342 839 275 772 342 b 543 193 610 342 543 275 b 692 46 543 113 610 46 z m 692 114 b 611 193 647 114 611 150 b 692 274 611 238 647 274 b 771 193 735 274 771 238 b 692 114 771 150 735 114 z m 218 657 b 367 806 300 657 367 724 b 218 954 367 888 300 954 b 69 806 136 954 69 888 b 218 657 69 724 136 657 z m 218 725 b 138 806 174 725 138 761 b 218 885 138 849 174 885 b 297 806 261 885 297 849 b 218 725 297 761 261 725 z m 346 1 l 743 885 l 688 999 l 563 999 l 167 114 l 221 1 z "},"&":{"ha":924,"x_min":0,"x_max":0,"o":"m 875 -87 l 903 25 l 804 165 l 924 333 l 924 419 l 754 419 l 754 346 l 715 293 l 528 563 l 719 679 l 719 889 l 596 1000 l 224 1000 l 69 888 l 283 582 l 72 451 l 72 96 l 196 -7 l 694 -7 l 750 -87 z m 444 681 l 325 851 l 551 851 l 551 746 z m 551 199 l 240 199 l 240 386 l 367 464 z "},"'":{"ha":279,"x_min":0,"x_max":0,"o":"m 231 771 l 279 885 l 279 999 l 69 999 l 69 885 l 117 771 z "},"(":{"ha":499,"x_min":0,"x_max":0,"o":"m 499 -132 l 499 36 l 413 36 l 274 193 l 274 681 l 413 838 l 499 838 l 499 1006 l 292 1006 l 69 756 l 69 118 l 292 -132 z "},")":{"ha":499,"x_min":0,"x_max":0,"o":"m 276 -132 l 499 118 l 499 756 l 276 1006 l 69 1006 l 69 838 l 156 838 l 294 681 l 294 193 l 156 36 l 69 36 l 69 -132 z "},"*":{"ha":474,"x_min":0,"x_max":0,"o":"m 346 669 l 439 763 l 386 814 l 474 881 l 381 974 l 338 931 l 338 1000 l 206 1000 l 206 931 l 163 974 l 69 881 l 154 815 l 96 763 l 189 669 l 268 750 z "},"+":{"ha":725,"x_min":0,"x_max":0,"o":"m 407 169 l 513 283 l 513 382 l 613 382 l 725 488 l 725 613 l 513 613 l 513 825 l 388 825 l 282 713 l 282 613 l 183 613 l 69 507 l 69 382 l 282 382 l 282 169 z "},",":{"ha":303,"x_min":0,"x_max":0,"o":"m 304 -82 l 304 183 l 74 183 l 74 69 l 163 -26 l 71 -26 l 71 -82 z "},"-":{"ha":725,"x_min":0,"x_max":0,"o":"m 611 382 l 725 488 l 725 613 l 182 613 l 69 507 l 69 382 z "},"­":{"ha":725,"x_min":0,"x_max":0,"o":"m 611 382 l 725 488 l 725 613 l 182 613 l 69 507 l 69 382 z "},".":{"ha":300,"x_min":0,"x_max":0,"o":"m 301 0 l 301 226 l 71 226 l 71 0 z "},"/":{"ha":646,"x_min":0,"x_max":0,"o":"m 249 1 l 646 885 l 590 999 l 467 999 l 69 114 l 125 1 z "},":":{"ha":300,"x_min":0,"x_max":0,"o":"m 300 203 l 300 429 l 69 429 l 69 315 l 175 203 z m 300 578 l 300 804 l 69 804 l 69 690 l 175 578 z "},";":{"ha":303,"x_min":0,"x_max":0,"o":"m 301 578 l 301 804 l 71 804 l 71 690 l 176 578 z m 303 164 l 303 429 l 72 429 l 72 315 l 163 221 l 69 221 l 69 164 z "},"<":{"ha":767,"x_min":0,"x_max":0,"o":"m 646 51 l 751 118 l 738 242 l 350 499 l 753 765 l 767 889 l 661 956 l 69 565 l 69 432 z "},"=":{"ha":725,"x_min":0,"x_max":0,"o":"m 613 586 l 725 693 l 725 817 l 182 817 l 69 711 l 69 586 z m 613 190 l 725 296 l 725 421 l 182 421 l 69 314 l 69 190 z "},">":{"ha":767,"x_min":0,"x_max":0,"o":"m 190 51 l 767 432 l 767 567 l 722 594 l 175 956 l 69 889 l 83 765 l 486 499 l 99 242 l 85 118 z "},"?":{"ha":1039,"x_min":0,"x_max":0,"o":"m 114 -207 l 238 -104 l 238 28 l 69 28 l 69 -207 z m 238 113 l 238 329 l 1039 329 l 1039 756 l 818 1006 l 193 1006 l 69 903 l 69 771 l 239 771 l 239 838 l 697 838 l 835 681 l 835 503 l 69 504 l 69 113 z "},"@":{"ha":1206,"x_min":0,"x_max":0,"o":"m 985 1 l 1206 251 l 1206 325 l 1001 325 l 863 169 l 411 169 l 272 326 l 272 681 l 411 838 l 863 838 l 1001 681 l 1001 547 l 881 547 l 881 629 l 769 754 l 458 754 l 396 703 l 396 636 l 481 636 l 481 671 l 710 671 l 778 592 l 778 547 l 396 547 l 396 304 l 458 253 l 769 253 l 881 378 l 881 460 l 1206 460 l 1206 756 l 985 1006 l 290 1006 l 69 756 l 69 251 l 290 1 z m 710 336 l 483 336 l 483 460 l 778 460 l 778 415 z "},"A":{"ha":1250,"x_min":0,"x_max":0,"o":"m 1250 0 l 1250 285 l 525 1010 l 69 1010 l 69 61 l 125 0 l 268 0 l 268 168 l 215 168 l 215 769 l 385 769 l 921 236 l 921 113 l 1015 0 z m 679 260 l 679 361 l 397 636 l 301 636 l 301 260 z "},"B":{"ha":1292,"x_min":0,"x_max":0,"o":"m 1292 0 l 1292 285 l 1065 513 l 899 513 l 381 1010 l 69 1010 l 69 61 l 125 0 z m 643 513 l 217 513 l 217 769 l 385 769 z m 921 168 l 217 168 l 217 401 l 422 401 l 508 318 l 838 318 l 921 236 z m 924 656 l 924 968 l 582 968 l 582 938 l 863 656 z "},"C":{"ha":1038,"x_min":0,"x_max":0,"o":"m 914 0 l 1038 103 l 1038 278 l 869 278 l 869 168 l 411 168 l 272 325 l 272 492 l 551 758 l 997 758 l 1038 797 l 1038 1010 l 524 1010 l 69 578 l 69 250 l 214 0 z "},"D":{"ha":1038,"x_min":0,"x_max":0,"o":"m 582 0 l 1038 431 l 1038 760 l 817 1010 l 193 1010 l 69 906 l 69 0 z m 554 251 l 238 251 l 238 842 l 696 842 l 835 685 l 835 518 z m 503 301 l 783 578 l 783 679 l 406 679 l 406 301 z "},"E":{"ha":1038,"x_min":0,"x_max":0,"o":"m 914 0 l 1038 103 l 1038 403 l 869 403 l 869 168 l 411 168 l 281 315 l 704 315 l 704 490 l 272 490 l 553 758 l 997 758 l 1038 797 l 1038 1010 l 525 1010 l 69 578 l 69 250 l 290 0 z "},"F":{"ha":1039,"x_min":0,"x_max":0,"o":"m 239 0 l 239 315 l 589 315 l 589 490 l 239 490 l 239 758 l 556 758 l 835 492 l 835 490 l 1039 490 l 1039 578 l 583 1010 l 69 1010 l 69 103 l 193 0 z m 1039 738 l 1039 1010 l 726 1010 l 726 997 l 1008 738 z "},"G":{"ha":1039,"x_min":0,"x_max":0,"o":"m 915 0 l 1039 103 l 1039 490 l 592 490 l 592 315 l 869 315 l 869 168 l 411 168 l 274 325 l 274 492 l 553 758 l 997 758 l 1039 797 l 1039 1010 l 525 1010 l 69 578 l 69 250 l 290 0 z m 100 738 l 382 997 l 382 1010 l 69 1010 l 69 738 z "},"H":{"ha":1003,"x_min":0,"x_max":0,"o":"m 961 690 b 961 907 961 826 961 771 l 811 1011 l 757 1011 l 757 514 l 304 514 l 304 690 l 264 690 b 264 907 264 826 264 771 l 113 1011 l 58 1011 b 58 124 58 715 58 421 l 169 0 l 304 0 l 304 401 l 428 401 l 518 319 l 757 319 l 757 124 l 868 0 l 1003 0 l 1003 690 l 961 690 z "},"I":{"ha":325,"x_min":0,"x_max":0,"o":"m 115 1014 l 69 1014 l 69 779 l 326 779 l 326 803 l 115 1014 z m 69 0 l 326 0 l 326 728 l 69 728 l 69 0 z "},"J":{"ha":850,"x_min":0,"x_max":0,"o":"m 636 24 l 636 0 l 850 0 l 850 247 l 811 247 l 636 24 z m 783 1013 l 349 1013 l 463 843 b 643 843 539 843 592 843 b 643 340 643 676 643 508 l 554 340 l 422 217 l 110 217 l 69 178 l 69 0 l 528 0 l 850 396 b 850 843 850 544 850 694 l 850 1013 l 783 1013 z "},"K":{"ha":1015,"x_min":0,"x_max":0,"o":"m 328 0 l 328 22 l 117 233 l 69 233 l 69 0 z m 1015 0 l 1015 251 l 728 251 l 447 518 l 447 521 l 697 758 l 1015 758 l 1015 1010 l 669 1010 l 271 633 l 271 1013 l 69 1013 l 69 285 l 271 285 l 271 406 l 700 0 z "},"L":{"ha":851,"x_min":0,"x_max":0,"o":"m 851 0 l 851 178 l 810 217 l 497 217 l 365 342 l 276 342 l 276 889 l 136 1013 l 69 1013 l 69 396 l 392 0 z m 283 0 l 283 25 l 108 249 l 69 249 l 69 0 z "},"M":{"ha":1508,"x_min":0,"x_max":0,"o":"m 1507 0 l 1507 264 l 1508 264 l 1508 544 l 1507 544 l 1507 578 l 1051 1010 l 69 1010 l 69 103 l 193 0 l 239 0 l 239 758 l 428 758 l 707 492 l 707 103 l 857 0 l 911 0 l 911 578 l 721 758 l 1024 758 l 1303 493 l 1303 103 l 1453 0 z m 1507 738 l 1507 1010 l 1196 1010 l 1196 997 l 1476 738 z "},"N":{"ha":1039,"x_min":0,"x_max":0,"o":"m 1038 738 l 1038 1010 l 726 1010 l 726 997 l 1007 738 z m 1038 0 l 1038 264 l 1039 264 l 1039 544 l 1038 544 l 1038 578 l 582 1010 l 69 1010 l 69 103 l 193 0 l 238 0 l 238 758 l 554 758 l 833 493 l 833 103 l 983 0 z "},"O":{"ha":1039,"x_min":0,"x_max":0,"o":"m 849 0 l 1039 189 l 1039 1010 l 258 1010 l 69 819 l 69 0 z m 278 335 l 278 694 l 403 818 l 792 818 z m 706 192 l 317 192 l 829 675 l 829 315 z "},"P":{"ha":1039,"x_min":0,"x_max":0,"o":"m 835 490 l 239 490 l 239 758 l 556 758 l 835 492 z m 1039 315 l 1039 578 l 583 1010 l 69 1010 l 69 103 l 193 0 l 239 0 l 239 315 z m 1039 738 l 1039 1010 l 726 1010 l 726 997 l 1008 738 z "},"Q":{"ha":1039,"x_min":0,"x_max":0,"o":"m 656 -171 l 656 0 l 1039 0 l 1039 1010 l 69 1010 l 69 103 l 193 0 l 451 0 l 451 -67 l 601 -171 z m 833 174 l 656 174 l 656 343 l 451 343 l 451 174 l 239 174 l 239 758 l 556 758 l 833 493 z m 914 608 l 883 608 l 601 869 l 601 882 l 914 882 z "},"R":{"ha":1039,"x_min":0,"x_max":0,"o":"m 835 490 l 239 490 l 239 758 l 556 758 l 835 492 z m 1039 315 l 1039 578 l 583 1010 l 69 1010 l 69 103 l 193 0 l 239 0 l 239 315 l 450 315 l 785 0 l 1039 0 l 1039 182 l 813 182 l 679 315 z m 1039 738 l 1039 1010 l 726 1010 l 726 997 l 1007 738 z "},"S":{"ha":1039,"x_min":0,"x_max":0,"o":"m 1039 417 l 1039 592 l 379 592 l 553 758 l 999 758 l 1039 797 l 1039 1010 l 525 1010 l 69 578 l 69 417 z m 663 0 l 1032 376 l 738 376 l 607 251 l 111 251 l 69 213 l 69 0 z "},"T":{"ha":865,"x_min":0,"x_max":0,"o":"m 556 0 l 556 264 l 557 264 l 557 1010 l -57 1010 l 57 842 l 310 842 l 310 510 l 351 510 l 351 103 l 501 0 z m 836 842 l 950 1010 l 583 1010 l 583 842 z m 665 433 l 665 817 l 583 817 l 583 433 z "},"U":{"ha":1001,"x_min":0,"x_max":0,"o":"m 890 0 l 1001 124 l 1001 1010 l 947 1010 l 796 906 l 796 499 l 756 499 l 756 168 l 317 168 l 317 499 l 275 499 l 275 906 l 125 1010 l 69 1010 l 69 124 l 182 0 z "},"V":{"ha":1061,"x_min":0,"x_max":0,"o":"m 614 0 l 674 57 l 674 64 b 1061 436 944 321 807 189 l 1061 1010 l 1006 1010 l 856 906 l 856 517 l 578 251 l 553 251 l 275 517 l 275 906 l 125 1010 l 69 1010 l 69 440 l 526 0 z m 1061 0 l 1061 272 l 1029 272 l 749 13 l 749 0 z m 382 0 l 382 13 l 100 272 l 69 272 l 69 0 z "},"W":{"ha":1256,"x_min":0,"x_max":0,"o":"m 1143 0 l 1256 124 l 1256 1010 l 1200 1010 l 1050 906 l 1050 499 l 1008 499 l 1008 168 l 776 168 l 776 746 l 775 746 l 775 1010 l 721 1010 l 571 906 l 571 499 l 529 499 l 529 168 l 317 168 l 317 499 l 275 499 l 275 906 l 125 1010 l 71 1010 l 71 746 l 69 746 l 69 465 l 71 465 l 71 124 l 135 51 l 107 0 z "},"X":{"ha":1286,"x_min":0,"x_max":0,"o":"m 1244 758 l 1286 797 l 1286 1011 l 1029 1011 l 679 679 l 326 1011 l 69 1011 l 69 797 l 110 758 l 299 758 l 564 506 l 299 253 l 110 253 l 69 214 l 69 0 l 326 0 l 679 332 l 1029 0 l 1286 0 l 1286 214 l 1244 253 l 1057 253 l 792 506 l 1057 758 l 1244 758 z "},"Y":{"ha":903,"x_min":0,"x_max":0,"o":"m 168 0 l 313 168 l 215 168 l 69 0 z m 792 0 l 903 124 l 903 1010 l 838 1010 l 657 885 l 657 578 l 614 626 l 336 626 l 336 885 l 156 1010 l 90 1010 l 90 581 l 201 458 l 657 458 l 657 168 l 378 168 l 233 0 z "},"Z":{"ha":1038,"x_min":0,"x_max":0,"o":"m 381 0 l 381 11 l 100 265 l 69 265 l 69 0 z m 1038 744 l 1038 1010 l 726 1010 l 726 997 l 1007 744 z m 1038 0 l 1038 207 l 997 244 l 553 244 l 364 419 l 1038 419 l 1038 590 l 583 1010 l 69 1010 l 69 803 l 110 764 l 556 764 l 743 590 l 69 590 l 69 419 l 525 0 z "},"[":{"ha":414,"x_min":0,"x_max":0,"o":"m 414 -132 l 414 31 l 274 31 l 274 843 l 414 843 l 414 1006 l 69 1006 l 69 -132 z "},"\\":{"ha":647,"x_min":0,"x_max":0,"o":"m 592 1 l 647 114 l 250 999 l 125 999 l 69 885 l 467 1 z "},"]":{"ha":413,"x_min":0,"x_max":0,"o":"m 413 -132 l 413 1006 l 69 1006 l 69 843 l 208 843 l 208 31 l 69 31 l 69 -132 z "},"^":{"ha":751,"x_min":0,"x_max":0,"o":"m 699 472 l 751 551 l 465 999 l 356 999 l 69 551 l 122 472 l 218 483 l 410 785 l 411 785 l 604 483 z "},"_":{"ha":793,"x_min":0,"x_max":0,"o":"m 733 -132 l 793 0 b 128 1 793 1 185 1 l 69 -132 z "},"`":{"ha":300,"x_min":0,"x_max":0,"o":"m 300 779 l 300 899 l 182 1006 l 69 1006 l 69 892 l 175 779 z "},"a":{"ha":1250,"x_min":0,"x_max":0,"o":"m 1250 0 l 1250 285 l 525 1010 l 69 1010 l 69 61 l 125 0 l 268 0 l 268 168 l 215 168 l 215 769 l 385 769 l 921 236 l 921 113 l 1015 0 z m 679 260 l 679 361 l 397 636 l 301 636 l 301 260 z "},"b":{"ha":1292,"x_min":0,"x_max":0,"o":"m 1292 0 l 1292 285 l 1065 513 l 899 513 l 381 1010 l 69 1010 l 69 61 l 125 0 z m 643 513 l 217 513 l 217 769 l 385 769 z m 921 168 l 217 168 l 217 401 l 422 401 l 508 318 l 838 318 l 921 236 z m 924 656 l 924 968 l 582 968 l 582 938 l 863 656 z "},"c":{"ha":1038,"x_min":0,"x_max":0,"o":"m 914 0 l 1038 103 l 1038 278 l 869 278 l 869 168 l 411 168 l 272 325 l 272 492 l 551 758 l 997 758 l 1038 797 l 1038 1010 l 524 1010 l 69 578 l 69 250 l 214 0 z "},"d":{"ha":1038,"x_min":0,"x_max":0,"o":"m 582 0 l 1038 431 l 1038 760 l 817 1010 l 193 1010 l 69 906 l 69 0 z m 554 251 l 238 251 l 238 842 l 696 842 l 835 685 l 835 518 z m 503 301 l 783 578 l 783 679 l 406 679 l 406 301 z "},"e":{"ha":1038,"x_min":0,"x_max":0,"o":"m 914 0 l 1038 103 l 1038 403 l 869 403 l 869 168 l 411 168 l 281 315 l 704 315 l 704 490 l 272 490 l 553 758 l 997 758 l 1038 797 l 1038 1010 l 525 1010 l 69 578 l 69 250 l 290 0 z "},"f":{"ha":1039,"x_min":0,"x_max":0,"o":"m 239 0 l 239 315 l 589 315 l 589 490 l 239 490 l 239 758 l 556 758 l 835 492 l 835 490 l 1039 490 l 1039 578 l 583 1010 l 69 1010 l 69 103 l 193 0 z m 1039 738 l 1039 1010 l 726 1010 l 726 997 l 1008 738 z "},"g":{"ha":1039,"x_min":0,"x_max":0,"o":"m 915 0 l 1039 103 l 1039 490 l 592 490 l 592 315 l 869 315 l 869 168 l 411 168 l 274 325 l 274 492 l 553 758 l 997 758 l 1039 797 l 1039 1010 l 525 1010 l 69 578 l 69 250 l 290 0 z m 100 738 l 382 997 l 382 1010 l 69 1010 l 69 738 z "},"h":{"ha":1000,"x_min":0,"x_max":0,"o":"m 958 690 b 958 907 958 826 958 771 l 808 1011 l 754 1011 l 754 514 l 301 514 l 301 690 l 261 690 b 261 907 261 826 261 771 l 110 1011 l 56 1011 b 56 124 56 715 56 421 l 167 0 l 301 0 l 301 401 l 425 401 l 515 319 l 754 319 l 754 124 l 865 0 l 1000 0 l 1000 690 l 958 690 z "},"i":{"ha":325,"x_min":0,"x_max":0,"o":"m 115 1014 l 69 1014 l 69 779 l 326 779 l 326 803 l 115 1014 z m 69 0 l 326 0 l 326 728 l 69 728 l 69 0 z "},"j":{"ha":850,"x_min":0,"x_max":0,"o":"m 636 24 l 636 0 l 850 0 l 850 247 l 811 247 l 636 24 z m 783 1013 l 349 1013 l 463 843 b 643 843 539 843 592 843 b 642 340 643 676 642 508 l 554 340 l 422 217 l 110 217 l 68 178 l 68 0 l 528 0 l 850 396 b 850 843 850 544 850 694 l 850 1013 l 783 1013 z "},"k":{"ha":1015,"x_min":0,"x_max":0,"o":"m 328 0 l 328 22 l 117 233 l 69 233 l 69 0 z m 1015 0 l 1015 251 l 728 251 l 447 518 l 447 521 l 697 758 l 1015 758 l 1015 1010 l 669 1010 l 271 633 l 271 1013 l 69 1013 l 69 285 l 271 285 l 271 406 l 700 0 z "},"l":{"ha":851,"x_min":0,"x_max":0,"o":"m 851 0 l 851 178 l 810 217 l 497 217 l 365 342 l 276 342 l 276 889 l 136 1013 l 69 1013 l 69 396 l 392 0 z m 283 0 l 283 25 l 108 249 l 69 249 l 69 0 z "},"m":{"ha":1508,"x_min":0,"x_max":0,"o":"m 1507 0 l 1507 264 l 1508 264 l 1508 544 l 1507 544 l 1507 578 l 1051 1010 l 69 1010 l 69 103 l 193 0 l 239 0 l 239 758 l 428 758 l 707 492 l 707 103 l 857 0 l 911 0 l 911 578 l 721 758 l 1024 758 l 1303 493 l 1303 103 l 1453 0 z m 1507 738 l 1507 1010 l 1196 1010 l 1196 997 l 1476 738 z "},"n":{"ha":1039,"x_min":0,"x_max":0,"o":"m 1038 738 l 1038 1010 l 726 1010 l 726 997 l 1007 738 z m 1038 0 l 1038 264 l 1039 264 l 1039 544 l 1038 544 l 1038 578 l 582 1010 l 69 1010 l 69 103 l 193 0 l 238 0 l 238 758 l 554 758 l 833 493 l 833 103 l 983 0 z "},"o":{"ha":1039,"x_min":0,"x_max":0,"o":"m 849 0 l 1039 189 l 1039 1010 l 258 1010 l 69 819 l 69 0 z m 278 335 l 278 694 l 403 818 l 792 818 z m 706 192 l 317 192 l 829 675 l 829 315 z "},"p":{"ha":1039,"x_min":0,"x_max":0,"o":"m 835 490 l 239 490 l 239 758 l 556 758 l 835 492 z m 1039 315 l 1039 578 l 583 1010 l 69 1010 l 69 103 l 193 0 l 239 0 l 239 315 z m 1039 738 l 1039 1010 l 726 1010 l 726 997 l 1008 738 z "},"q":{"ha":1039,"x_min":0,"x_max":0,"o":"m 656 -171 l 656 0 l 1039 0 l 1039 1010 l 69 1010 l 69 103 l 193 0 l 451 0 l 451 -67 l 601 -171 z m 833 174 l 656 174 l 656 343 l 451 343 l 451 174 l 239 174 l 239 758 l 556 758 l 833 493 z m 914 608 l 883 608 l 601 869 l 601 882 l 914 882 z "},"r":{"ha":1039,"x_min":0,"x_max":0,"o":"m 1039 738 l 1039 1010 l 726 1010 l 726 997 l 1007 738 z m 835 490 l 239 490 l 239 758 l 556 758 l 835 492 z m 1039 315 l 1039 578 l 583 1010 l 69 1010 l 69 103 l 193 0 l 239 0 l 239 315 l 450 315 l 785 0 l 1039 0 l 1039 182 l 813 182 l 679 315 z "},"s":{"ha":1039,"x_min":0,"x_max":0,"o":"m 1039 417 l 1039 592 l 379 592 l 553 758 l 999 758 l 1039 797 l 1039 1010 l 525 1010 l 69 578 l 69 417 z m 663 0 l 1032 376 l 738 376 l 607 251 l 111 251 l 69 213 l 69 0 z "},"t":{"ha":731,"x_min":0,"x_max":0,"o":"m 586 167 l 308 167 l 308 694 l 308 763 l 482 763 l 485 763 l 617 967 l 300 967 l 300 1088 l 125 1208 l 63 1208 l 63 1013 l 63 967 l 63 122 l 174 -1 l 732 -1 l 586 167 z "},"u":{"ha":1001,"x_min":0,"x_max":0,"o":"m 890 0 l 1001 124 l 1001 1010 l 947 1010 l 796 906 l 796 499 l 756 499 l 756 168 l 317 168 l 317 499 l 275 499 l 275 906 l 125 1010 l 69 1010 l 69 124 l 182 0 z "},"v":{"ha":1061,"x_min":0,"x_max":0,"o":"m 614 0 l 674 57 l 674 64 b 1061 436 944 321 807 189 l 1061 1010 l 1006 1010 l 856 906 l 856 517 l 578 251 l 553 251 l 275 517 l 275 906 l 125 1010 l 69 1010 l 69 440 l 526 0 z m 1061 0 l 1061 272 l 1029 272 l 749 13 l 749 0 z m 382 0 l 382 13 l 100 272 l 69 272 l 69 0 z "},"w":{"ha":1256,"x_min":0,"x_max":0,"o":"m 1143 0 l 1256 124 l 1256 1010 l 1200 1010 l 1050 906 l 1050 499 l 1008 499 l 1008 168 l 776 168 l 776 746 l 775 746 l 775 1010 l 721 1010 l 571 906 l 571 499 l 529 499 l 529 168 l 317 168 l 317 499 l 275 499 l 275 906 l 125 1010 l 71 1010 l 71 746 l 69 746 l 69 465 l 71 465 l 71 124 l 135 51 l 107 0 z "},"x":{"ha":1286,"x_min":0,"x_max":0,"o":"m 1246 758 l 1288 797 l 1288 1011 l 1031 1011 l 681 679 l 328 1011 l 71 1011 l 71 797 l 111 758 l 300 758 l 565 506 l 300 253 l 111 253 l 71 214 l 71 0 l 328 0 l 681 332 l 1031 0 l 1288 0 l 1288 214 l 1246 253 l 1058 253 l 793 506 l 1058 758 l 1246 758 z "},"y":{"ha":903,"x_min":0,"x_max":0,"o":"m 168 0 l 313 168 l 215 168 l 69 0 z m 792 0 l 903 124 l 903 1010 l 838 1010 l 657 885 l 657 578 l 614 626 l 336 626 l 336 885 l 156 1010 l 90 1010 l 90 581 l 201 458 l 657 458 l 657 168 l 378 168 l 233 0 z "},"z":{"ha":1038,"x_min":0,"x_max":0,"o":"m 381 0 l 381 11 l 100 265 l 69 265 l 69 0 z m 1038 744 l 1038 1010 l 726 1010 l 726 997 l 1007 744 z m 1038 0 l 1038 207 l 997 244 l 553 244 l 364 419 l 1038 419 l 1038 590 l 583 1010 l 69 1010 l 69 803 l 110 764 l 556 764 l 743 590 l 69 590 l 69 419 l 525 0 z "},"{":{"ha":499,"x_min":0,"x_max":0,"o":"m 499 -133 l 499 39 l 411 39 l 274 200 l 274 285 l 404 436 l 274 589 l 274 672 l 411 833 l 499 833 l 499 1006 l 290 1006 l 69 749 l 69 511 l 135 436 l 69 361 l 69 124 l 290 -133 z "},"|":{"ha":300,"x_min":0,"x_max":0,"o":"m 300 -133 l 300 893 l 194 1006 l 69 1006 l 69 -21 l 176 -133 z "},"}":{"ha":497,"x_min":0,"x_max":0,"o":"m 276 -133 l 497 124 l 497 361 l 433 436 l 497 511 l 497 749 l 276 1006 l 69 1006 l 69 833 l 156 833 l 294 672 l 294 589 l 163 436 l 294 285 l 294 200 l 156 39 l 69 39 l 69 -133 z "},"~":{"ha":750,"x_min":0,"x_max":0,"o":"m 544 363 b 750 488 621 363 690 390 l 750 604 b 603 578 694 585 646 578 b 313 629 486 578 406 629 b 69 507 244 629 171 601 l 69 390 b 203 410 115 404 160 410 b 544 363 331 410 444 363 z "},"¡":{"ha":933,"x_min":0,"x_max":0,"o":""},"¢":{"ha":1582,"x_min":0,"x_max":0,"o":""},"£":{"ha":688,"x_min":0,"x_max":0,"o":""},"¤":{"ha":688,"x_min":0,"x_max":0,"o":""},"¥":{"ha":688,"x_min":0,"x_max":0,"o":""},"¦":{"ha":688,"x_min":0,"x_max":0,"o":""},"§":{"ha":688,"x_min":0,"x_max":0,"o":""},"¨":{"ha":694,"x_min":0,"x_max":0,"o":""},"©":{"ha":1136,"x_min":0,"x_max":0,"o":""},"ª":{"ha":900,"x_min":0,"x_max":0,"o":""},"«":{"ha":1311,"x_min":0,"x_max":0,"o":""},"¬":{"ha":688,"x_min":0,"x_max":0,"o":""},"®":{"ha":1136,"x_min":0,"x_max":0,"o":""},"¯":{"ha":694,"x_min":0,"x_max":0,"o":""},"°":{"ha":457,"x_min":0,"x_max":0,"o":""},"±":{"ha":725,"x_min":0,"x_max":0,"o":"m 407 169 l 513 283 l 513 382 l 613 382 l 725 488 l 725 613 l 513 613 l 513 825 l 388 825 l 282 713 l 282 613 l 183 613 l 69 507 l 69 382 l 282 382 l 282 169 z "},"²":{"ha":1408,"x_min":0,"x_max":0,"o":""},"³":{"ha":1408,"x_min":0,"x_max":0,"o":""},"´":{"ha":694,"x_min":0,"x_max":0,"o":""},"µ":{"ha":1639,"x_min":0,"x_max":0,"o":""},"¶":{"ha":694,"x_min":0,"x_max":0,"o":""},"·":{"ha":344,"x_min":0,"x_max":0,"o":""},"∙":{"ha":344,"x_min":0,"x_max":0,"o":""},"¸":{"ha":694,"x_min":0,"x_max":0,"o":""},"¹":{"ha":1408,"x_min":0,"x_max":0,"o":""},"º":{"ha":2114,"x_min":0,"x_max":0,"o":""},"»":{"ha":1311,"x_min":0,"x_max":0,"o":""},"¼":{"ha":2372,"x_min":0,"x_max":0,"o":""},"½":{"ha":3292,"x_min":0,"x_max":0,"o":""},"¾":{"ha":2372,"x_min":0,"x_max":0,"o":""},"¿":{"ha":1039,"x_min":0,"x_max":0,"o":""},"À":{"ha":2139,"x_min":0,"x_max":0,"o":""},"Á":{"ha":2139,"x_min":0,"x_max":0,"o":""},"Â":{"ha":2139,"x_min":0,"x_max":0,"o":""},"Ã":{"ha":2139,"x_min":0,"x_max":0,"o":""},"Ä":{"ha":2139,"x_min":0,"x_max":0,"o":""},"Å":{"ha":2139,"x_min":0,"x_max":0,"o":""},"Æ":{"ha":2903,"x_min":0,"x_max":0,"o":""},"Ç":{"ha":1943,"x_min":0,"x_max":0,"o":""},"È":{"ha":1599,"x_min":0,"x_max":0,"o":""},"É":{"ha":1599,"x_min":0,"x_max":0,"o":""},"Ê":{"ha":1599,"x_min":0,"x_max":0,"o":""},"Ë":{"ha":1599,"x_min":0,"x_max":0,"o":""},"Ì":{"ha":913,"x_min":0,"x_max":0,"o":""},"Í":{"ha":913,"x_min":0,"x_max":0,"o":""},"Î":{"ha":913,"x_min":0,"x_max":0,"o":""},"Ï":{"ha":913,"x_min":0,"x_max":0,"o":""},"Ð":{"ha":2108,"x_min":0,"x_max":0,"o":""},"Ñ":{"ha":2158,"x_min":0,"x_max":0,"o":""},"Ò":{"ha":2242,"x_min":0,"x_max":0,"o":""},"Ó":{"ha":2242,"x_min":0,"x_max":0,"o":""},"Ô":{"ha":2242,"x_min":0,"x_max":0,"o":""},"Õ":{"ha":2242,"x_min":0,"x_max":0,"o":""},"Ö":{"ha":2242,"x_min":0,"x_max":0,"o":""},"×":{"ha":689,"x_min":0,"x_max":0,"o":""},"Ø":{"ha":2242,"x_min":0,"x_max":0,"o":""},"Ù":{"ha":2085,"x_min":0,"x_max":0,"o":""},"Ú":{"ha":2085,"x_min":0,"x_max":0,"o":""},"Û":{"ha":2085,"x_min":0,"x_max":0,"o":""},"Ü":{"ha":2085,"x_min":0,"x_max":0,"o":""},"Ý":{"ha":1713,"x_min":0,"x_max":0,"o":""},"Þ":{"ha":1556,"x_min":0,"x_max":0,"o":""},"ß":{"ha":1738,"x_min":0,"x_max":0,"o":""},"à":{"ha":1281,"x_min":0,"x_max":0,"o":""},"á":{"ha":1281,"x_min":0,"x_max":0,"o":""},"â":{"ha":1281,"x_min":0,"x_max":0,"o":""},"ã":{"ha":1281,"x_min":0,"x_max":0,"o":""},"ä":{"ha":1281,"x_min":0,"x_max":0,"o":""},"å":{"ha":1281,"x_min":0,"x_max":0,"o":""},"æ":{"ha":2015,"x_min":0,"x_max":0,"o":""},"ç":{"ha":1257,"x_min":0,"x_max":0,"o":""},"è":{"ha":1263,"x_min":0,"x_max":0,"o":""},"é":{"ha":1263,"x_min":0,"x_max":0,"o":""},"ê":{"ha":1263,"x_min":0,"x_max":0,"o":""},"ë":{"ha":1263,"x_min":0,"x_max":0,"o":""},"ì":{"ha":714,"x_min":0,"x_max":0,"o":""},"í":{"ha":714,"x_min":0,"x_max":0,"o":""},"î":{"ha":714,"x_min":0,"x_max":0,"o":""},"ï":{"ha":714,"x_min":0,"x_max":0,"o":""},"ð":{"ha":1582,"x_min":0,"x_max":0,"o":""},"ñ":{"ha":1539,"x_min":0,"x_max":0,"o":""},"ò":{"ha":1403,"x_min":0,"x_max":0,"o":""},"ó":{"ha":1403,"x_min":0,"x_max":0,"o":""},"ô":{"ha":1403,"x_min":0,"x_max":0,"o":""},"õ":{"ha":1403,"x_min":0,"x_max":0,"o":""},"ö":{"ha":1403,"x_min":0,"x_max":0,"o":""},"÷":{"ha":688,"x_min":0,"x_max":0,"o":"m 651 538 l 651 764 l 421 764 l 421 650 l 526 538 z m 651 913 l 651 1139 l 421 1139 l 421 1025 l 526 913 z "},"ø":{"ha":1403,"x_min":0,"x_max":0,"o":""},"ù":{"ha":1471,"x_min":0,"x_max":0,"o":""},"ú":{"ha":1471,"x_min":0,"x_max":0,"o":""},"û":{"ha":1471,"x_min":0,"x_max":0,"o":""},"ü":{"ha":1471,"x_min":0,"x_max":0,"o":""},"ý":{"ha":1206,"x_min":0,"x_max":0,"o":""},"þ":{"ha":1403,"x_min":0,"x_max":0,"o":""},"ÿ":{"ha":1206,"x_min":0,"x_max":0,"o":""},"ı":{"ha":349,"x_min":0,"x_max":0,"o":""},"̀":{"ha":0,"x_min":0,"x_max":0,"o":""},"́":{"ha":0,"x_min":0,"x_max":0,"o":""},"̂":{"ha":0,"x_min":0,"x_max":0,"o":""},"̃":{"ha":0,"x_min":0,"x_max":0,"o":""},"̄":{"ha":0,"x_min":0,"x_max":0,"o":""},"̇":{"ha":0,"x_min":0,"x_max":0,"o":""},"̈":{"ha":0,"x_min":0,"x_max":0,"o":""},"̊":{"ha":0,"x_min":0,"x_max":0,"o":""},"̌":{"ha":0,"x_min":0,"x_max":0,"o":""},"̧":{"ha":0,"x_min":0,"x_max":0,"o":""},"–":{"ha":751,"x_min":0,"x_max":0,"o":""},"—":{"ha":1389,"x_min":0,"x_max":0,"o":""},"‘":{"ha":378,"x_min":0,"x_max":0,"o":"m 71 578 l 304 578 l 304 633 l 211 633 l 301 729 l 301 843 l 71 843 z "},"’":{"ha":378,"x_min":0,"x_max":0,"o":"m 304 578 l 304 843 l 74 843 l 74 729 l 163 633 l 71 633 l 71 578 z "},"‚":{"ha":378,"x_min":0,"x_max":0,"o":"m 307 0 l 307 265 l 76 265 l 76 151 l 165 56 l 74 56 l 74 0 z "},"“":{"ha":617,"x_min":0,"x_max":0,"o":"m 300 779 l 300 1006 l 69 1006 l 69 892 l 175 779 z m 593 779 l 593 1006 l 363 1006 l 363 892 l 468 779 z "},"”":{"ha":618,"x_min":0,"x_max":0,"o":"m 363 779 l 488 779 l 593 892 l 593 1006 l 363 1006 z m 69 779 l 194 779 l 300 892 l 300 1006 l 69 1006 z "},"„":{"ha":618,"x_min":0,"x_max":0,"o":"m 349 -83 l 474 -83 l 579 29 l 579 143 l 349 143 z m 56 -83 l 181 -83 l 286 29 l 286 143 l 56 143 z "},"†":{"ha":688,"x_min":0,"x_max":0,"o":""},"‡":{"ha":688,"x_min":0,"x_max":0,"o":""},"•":{"ha":694,"x_min":0,"x_max":0,"o":""},"…":{"ha":2844,"x_min":0,"x_max":0,"o":"m 301 0 l 301 226 l 71 226 l 71 0 z m 1250 0 l 1250 226 l 1019 226 l 1019 0 z m 2199 0 l 2199 226 l 1968 226 l 1968 0 z "},"‹":{"ha":428,"x_min":0,"x_max":0,"o":""},"›":{"ha":428,"x_min":0,"x_max":0,"o":""},"⁄":{"ha":232,"x_min":0,"x_max":0,"o":""},"∕":{"ha":232,"x_min":0,"x_max":0,"o":""},"₣":{"ha":689,"x_min":0,"x_max":0,"o":""},"₤":{"ha":688,"x_min":0,"x_max":0,"o":""},"₧":{"ha":1375,"x_min":0,"x_max":0,"o":""},"€":{"ha":688,"x_min":0,"x_max":0,"o":""},"№":{"ha":3154,"x_min":0,"x_max":0,"o":""},"™":{"ha":2079,"x_min":0,"x_max":0,"o":""},"∂":{"ha":689,"x_min":0,"x_max":0,"o":""},"∆":{"ha":733,"x_min":0,"x_max":0,"o":""},"∏":{"ha":1026,"x_min":0,"x_max":0,"o":""},"∑":{"ha":818,"x_min":0,"x_max":0,"o":""},"−":{"ha":688,"x_min":0,"x_max":0,"o":""},"√":{"ha":688,"x_min":0,"x_max":0,"o":""},"∞":{"ha":688,"x_min":0,"x_max":0,"o":""},"∫":{"ha":451,"x_min":0,"x_max":0,"o":""},"≈":{"ha":688,"x_min":0,"x_max":0,"o":""},"≤":{"ha":767,"x_min":0,"x_max":0,"o":"m 646 75 l 751 142 l 738 265 l 350 522 l 753 789 l 767 913 l 661 979 l 69 589 l 69 456 z "},"≥":{"ha":767,"x_min":0,"x_max":0,"o":"m 190 75 l 767 456 l 767 590 l 722 618 l 175 979 l 69 913 l 83 789 l 486 522 l 99 265 l 85 142 z "},"ﬁ":{"ha":1490,"x_min":0,"x_max":0,"o":""},"ﬂ":{"ha":1501,"x_min":0,"x_max":0,"o":""},"":{"ha":1407,"x_min":0,"x_max":0,"o":"m -1 842 l 251 842 l 251 511 l 293 511 l 293 278 l 293 265 l 293 104 l 443 0 l 497 0 l 497 169 l 497 265 l 499 265 l 499 511 l 499 546 l 499 832 l 499 842 l 499 1010 l -115 1010 l -1 842 z m 525 435 l 607 435 l 607 818 l 525 818 l 525 435 z m 871 1010 l 525 1010 l 525 842 l 778 842 l 871 979 l 871 842 l 871 807 l 871 511 l 913 511 l 913 278 l 913 265 l 913 104 l 1063 0 l 1118 0 l 1118 169 l 1118 265 l 1118 511 l 1118 546 l 1118 832 l 1118 842 l 1118 1010 l 893 1010 l 871 1010 z m 1144 842 l 1399 842 l 1513 1010 l 1144 1010 l 1144 842 z m 1144 435 l 1226 435 l 1226 818 l 1144 818 l 1144 435 z "},"":{"ha":1426,"x_min":0,"x_max":0,"o":"m 497 218 l 365 342 l 276 342 b 276 889 276 525 276 707 l 135 1014 l 69 1014 b 69 397 69 808 69 603 l 392 1 l 772 1 l 596 218 l 497 218 z m 69 249 l 69 1 l 283 1 l 283 25 l 107 249 l 69 249 z m 1315 218 l 1003 218 l 872 342 l 783 342 b 782 889 783 525 782 707 l 642 1014 l 575 1014 b 575 397 575 808 575 603 l 899 1 l 1357 1 l 1357 179 l 1315 218 z "},"":{"ha":1426,"x_min":0,"x_max":0,"o":"m 497 218 l 365 342 l 276 342 b 276 889 276 525 276 707 l 135 1014 l 69 1014 b 69 397 69 808 69 603 l 392 1 l 772 1 l 596 218 l 497 218 z m 69 249 l 69 1 l 283 1 l 283 25 l 107 249 l 69 249 z m 1315 218 l 1003 218 l 872 342 l 783 342 b 782 889 783 525 782 707 l 642 1014 l 575 1014 b 575 397 575 808 575 603 l 899 1 l 1357 1 l 1357 179 l 1315 218 z "},"":{"ha":1788,"x_min":0,"x_max":0,"o":"m 64 842 l 318 842 l 318 511 l 358 511 l 358 278 l 358 265 l 358 104 l 508 0 l 564 0 l 564 169 l 564 265 l 564 511 l 564 546 l 564 832 l 564 842 l 564 1011 l -50 1011 l 64 842 z m 592 435 l 672 435 l 672 818 l 592 818 l 592 435 z m 1749 690 b 1749 907 1749 826 1749 771 l 1597 1011 l 1543 1011 l 1543 514 l 1092 514 l 1092 690 l 1050 690 b 1050 907 1050 826 1050 771 l 900 1011 l 844 1011 l 592 1011 l 592 842 l 844 842 l 844 124 l 957 0 l 1092 0 l 1092 401 l 1215 401 l 1304 319 l 1543 319 l 1543 124 l 1654 0 l 1790 0 l 1790 690 l 1749 690 z "}}}
